<svg xmlns="http://www.w3.org/2000/svg" xmlns:xlink="http://www.w3.org/1999/xlink" width="139" height="41.315" viewBox="0 0 139 41.315">
  <defs>
    <linearGradient id="linear-gradient" x1="-0.103" y1="1.353" x2="1.045" y2="-0.443" gradientUnits="objectBoundingBox">
      <stop offset="0" stop-color="#0039a3"/>
      <stop offset="1" stop-color="#1bbbf5"/>
    </linearGradient>
    <linearGradient id="linear-gradient-2" x1="-0.022" y1="1.125" x2="1.331" y2="-0.885" xlink:href="#linear-gradient"/>
    <linearGradient id="linear-gradient-3" x1="-0.409" y1="2.001" x2="0.959" y2="-0.032" xlink:href="#linear-gradient"/>
  </defs>
  <g id="Group_886" data-name="Group 886" transform="translate(-728.738 -1027.64)">
    <g id="Group_884" data-name="Group 884" transform="translate(728.738 1027.64)">
      <g id="Group_883" data-name="Group 883" transform="translate(0 10.545)">
        <path id="Path_4" data-name="Path 4" d="M737.845,1103.787a7.6,7.6,0,0,1-7.552-6.831h12.962a7.6,7.6,0,0,1,7.55,6.814l0,.018Zm18.05-.018h-3.566a9.118,9.118,0,0,0-9.074-8.331H728.738v.759a9.117,9.117,0,0,0,9.107,9.107h2.194a9.119,9.119,0,0,0,9.073,8.332h.488a4.895,4.895,0,0,0,9.623,0H765v-.759A9.118,9.118,0,0,0,755.895,1103.77Zm-1.467,12.528a3.52,3.52,0,1,1,3.52-3.52A3.52,3.52,0,0,1,754.427,1116.3Zm4.84-4.179a4.894,4.894,0,0,0-9.71,0h-.445a7.6,7.6,0,0,1-7.55-6.814l0-.018h14.334a7.6,7.6,0,0,1,7.552,6.832Z" transform="translate(-728.738 -1095.439)" fill="url(#linear-gradient)"/>
      </g>
      <path id="Path_5" data-name="Path 5" d="M731.075,1166.155a2.666,2.666,0,0,1,.4,1.789,11.484,11.484,0,0,0,.514,4.631,5.216,5.216,0,0,0,1.354,2.221c.568.518,1.145.638,1.515.34a1.482,1.482,0,0,0,.106-1.793,7.312,7.312,0,0,0-.633-.773.932.932,0,0,1-.066-1.352.991.991,0,0,1,1.368-.143,3.343,3.343,0,0,1,1.626,2.868,10.6,10.6,0,0,0,.432,3.022c.039.117.1.227.149.341a5.2,5.2,0,0,0,.873,1.688.073.073,0,0,0,.059.074l.095.136a9.022,9.022,0,0,0,6.079,3.387,16.378,16.378,0,0,0,13.484-3.545c.376-.309.707-.672,1.089-.981a6.179,6.179,0,0,1-1.1,1.646c-4.51,5.264-10.231,6.96-16.855,5.362a16.082,16.082,0,0,1-11.837-10.278,16.3,16.3,0,0,1-.907-7.394,3.505,3.505,0,0,1,.275-.957l.079-.11.133-.149A1.32,1.32,0,0,1,731.075,1166.155Z" transform="translate(-728.738 -1144.336)" fill="url(#linear-gradient-2)"/>
      <path id="Path_6" data-name="Path 6" d="M804.625,1046.917a2.639,2.639,0,0,1-.4-1.769,11.353,11.353,0,0,0-.508-4.579,5.159,5.159,0,0,0-1.339-2.2c-.561-.513-1.133-.631-1.5-.336a1.464,1.464,0,0,0-.1,1.772,7.194,7.194,0,0,0,.626.764.922.922,0,0,1,.066,1.336.98.98,0,0,1-1.353.141,3.3,3.3,0,0,1-1.608-2.836,10.5,10.5,0,0,0-.427-2.988c-.038-.116-.1-.225-.147-.337a5.142,5.142,0,0,0-.863-1.669.072.072,0,0,0-.058-.073l-.094-.134a8.921,8.921,0,0,0-6.011-3.349,16.194,16.194,0,0,0-13.332,3.5c-.371.305-.7.664-1.077.971a6.1,6.1,0,0,1,1.088-1.628c4.459-5.205,10.116-6.882,16.665-5.3a15.9,15.9,0,0,1,11.7,10.163,16.113,16.113,0,0,1,.9,7.311,3.466,3.466,0,0,1-.272.946l-.078.109-.132.147A1.305,1.305,0,0,1,804.625,1046.917Z" transform="translate(-769.073 -1027.64)" fill="url(#linear-gradient-3)"/>
    </g>
    <g id="Group_885" data-name="Group 885" transform="translate(778.102 1037.034)">
      <path id="Path_7" data-name="Path 7" d="M1066.231,1109.07a5.562,5.562,0,0,1,1.473,4.114v6.223a1.65,1.65,0,0,1-1.65,1.65h0a1.65,1.65,0,0,1-1.65-1.65v-5.776a3.263,3.263,0,0,0-.778-2.346,2.8,2.8,0,0,0-2.122-.813,2.836,2.836,0,0,0-2.133.813,3.231,3.231,0,0,0-.79,2.346v5.776a1.65,1.65,0,0,1-1.65,1.65h0a1.65,1.65,0,0,1-1.65-1.65v-5.776a3.263,3.263,0,0,0-.778-2.346,2.8,2.8,0,0,0-2.122-.813,2.867,2.867,0,0,0-2.157.813,3.232,3.232,0,0,0-.79,2.346v5.776a1.65,1.65,0,0,1-1.65,1.65h0a1.65,1.65,0,0,1-1.65-1.65v-10.16a1.65,1.65,0,0,1,1.65-1.65h0a1.65,1.65,0,0,1,1.65,1.65v.118a4.393,4.393,0,0,1,1.638-1.3,5.114,5.114,0,0,1,2.2-.471,5.671,5.671,0,0,1,2.735.648,4.543,4.543,0,0,1,1.862,1.851,4.727,4.727,0,0,1,1.851-1.815,5.659,5.659,0,0,1,6.506.79Z" transform="translate(-1046.134 -1104.556)" fill="#354863"/>
      <path id="Path_8" data-name="Path 8" d="M1204.817,1120.092a6.021,6.021,0,0,1-2.369-2.369,7.1,7.1,0,0,1-.86-3.536,6.948,6.948,0,0,1,.884-3.536,6.143,6.143,0,0,1,2.416-2.369,7.4,7.4,0,0,1,6.836,0,6.147,6.147,0,0,1,2.416,2.369,6.949,6.949,0,0,1,.884,3.536,6.81,6.81,0,0,1-.907,3.536,6.286,6.286,0,0,1-2.452,2.369,7.129,7.129,0,0,1-3.454.837A6.877,6.877,0,0,1,1204.817,1120.092Zm5.08-2.475a3.17,3.17,0,0,0,1.261-1.308,4.41,4.41,0,0,0,.472-2.122,3.932,3.932,0,0,0-.979-2.864,3.216,3.216,0,0,0-2.393-1,3.141,3.141,0,0,0-2.369,1,3.992,3.992,0,0,0-.955,2.864,4.051,4.051,0,0,0,.931,2.864,3.065,3.065,0,0,0,2.346,1A3.433,3.433,0,0,0,1209.9,1117.617Z" transform="translate(-1177.41 -1104.428)" fill="#354863"/>
      <path id="Path_9" data-name="Path 9" d="M1298.068,1093.984v6.53a1.248,1.248,0,0,0,.318.955,1.561,1.561,0,0,0,1.073.295h.141a1.391,1.391,0,0,1,1.391,1.391h0a1.391,1.391,0,0,1-1.391,1.391h-.684q-4.173,0-4.173-4.055v-6.506h-.762a1.45,1.45,0,0,1-1.45-1.45h0a1.45,1.45,0,0,1,1.45-1.45h.762v-1.379a1.662,1.662,0,0,1,1.662-1.662h0a1.662,1.662,0,0,1,1.662,1.662v1.379h1.532a1.391,1.391,0,0,1,1.391,1.391v.118a1.391,1.391,0,0,1-1.391,1.391Z" transform="translate(-1254.21 -1088.044)" fill="#354863"/>
      <path id="Path_10" data-name="Path 10" d="M1363.474,1110.628a5.784,5.784,0,0,1,2.145-2.357,5.711,5.711,0,0,1,3.029-.825,5.324,5.324,0,0,1,2.558.589,5.194,5.194,0,0,1,1.756,1.485v-.4a1.65,1.65,0,0,1,1.65-1.65h.023a1.65,1.65,0,0,1,1.65,1.65v10.208a1.6,1.6,0,0,1-1.6,1.6h-.12a1.6,1.6,0,0,1-1.6-1.6v-.52a4.914,4.914,0,0,1-1.756,1.521,5.375,5.375,0,0,1-2.581.6,5.549,5.549,0,0,1-3.006-.849,5.936,5.936,0,0,1-2.145-2.393,7.68,7.68,0,0,1-.79-3.548A7.556,7.556,0,0,1,1363.474,1110.628Zm9.017,1.5a3.329,3.329,0,0,0-1.273-1.32,3.4,3.4,0,0,0-1.721-.46,3.315,3.315,0,0,0-2.959,1.756,4.1,4.1,0,0,0-.483,2.039,4.234,4.234,0,0,0,.483,2.063,3.478,3.478,0,0,0,1.273,1.355,3.231,3.231,0,0,0,1.686.472,3.4,3.4,0,0,0,1.721-.46,3.326,3.326,0,0,0,1.273-1.32,4.747,4.747,0,0,0,0-4.125Z" transform="translate(-1313.452 -1104.428)" fill="#354863"/>
      <path id="Path_11" data-name="Path 11" d="M1479.14,1108.186l.021-.012a2.046,2.046,0,0,1,2.922,1.126l.008.233a1.478,1.478,0,0,1-1.477,1.529h0a2.753,2.753,0,0,0-3.135,3.277v5.116a1.6,1.6,0,0,1-1.6,1.6h-.1a1.6,1.6,0,0,1-1.6-1.6v-10.208a1.65,1.65,0,0,1,1.65-1.65h0a1.65,1.65,0,0,1,1.65,1.65v.566A4.639,4.639,0,0,1,1479.14,1108.186Z" transform="translate(-1407.605 -1104.556)" fill="#354863"/>
      <path id="Path_12" data-name="Path 12" d="M1554.817,1110.043l-6.756,16.249a1.6,1.6,0,0,1-1.479.987h0a1.6,1.6,0,0,1-1.469-2.241l1.854-4.266-4.345-10.745a1.6,1.6,0,0,1,1.482-2.2h.209a1.6,1.6,0,0,1,1.5,1.055l2.99,8.28,3.034-8.286a1.6,1.6,0,0,1,1.5-1.049h0A1.6,1.6,0,0,1,1554.817,1110.043Z" transform="translate(-1465.305 -1104.754)" fill="#354863"/>
    </g>
  </g>
</svg>
